<svg width="51" height="51" viewBox="0 0 51 51" fill="none" xmlns="http://www.w3.org/2000/svg">
<g clip-path="url(#clip0_208_125)">
<path d="M45.3257 15.3802C45.3574 15.8244 45.3574 16.2686 45.3574 16.7127C45.3574 30.2596 35.0466 45.8688 16.2014 45.8688C10.3955 45.8688 5.00215 44.1872 0.465332 41.2686C1.29023 41.3637 2.0833 41.3954 2.93994 41.3954C7.73047 41.3954 12.1404 39.7775 15.662 37.0173C11.1569 36.9221 7.38154 33.9716 6.08076 29.9107C6.71533 30.0058 7.3498 30.0693 8.01611 30.0693C8.93613 30.0693 9.85625 29.9423 10.7128 29.7203C6.01738 28.7685 2.4957 24.6442 2.4957 19.6632V19.5364C3.85986 20.2978 5.44629 20.7737 7.12764 20.837C4.36748 18.9969 2.55918 15.8561 2.55918 12.3028C2.55918 10.3993 3.0667 8.65433 3.95508 7.13148C8.99951 13.3497 16.582 17.4106 25.0845 17.8548C24.9259 17.0934 24.8307 16.3003 24.8307 15.5072C24.8307 9.8599 29.3992 5.2597 35.0781 5.2597C38.0286 5.2597 40.6936 6.49701 42.5654 8.49574C44.8813 8.0516 47.1022 7.19496 49.0692 6.02113C48.3077 8.40062 46.6897 10.3994 44.5642 11.6683C46.6264 11.4463 48.6251 10.8751 50.4651 10.0821C49.0694 12.1124 47.3244 13.9207 45.3257 15.3802Z" fill="white"/>
</g>
<defs>
<clipPath id="clip0_208_125">
<rect width="50" height="50" fill="white" transform="translate(0.465332 0.564209)"/>
</clipPath>
</defs>
</svg>
