<svg width="22" height="22" viewBox="0 0 22 22" fill="none" xmlns="http://www.w3.org/2000/svg">
<path d="M18.817 6.54H5.25605C5.07623 6.54 4.90378 6.46857 4.77663 6.34142C4.64948 6.21427 4.57805 6.04182 4.57805 5.862C4.57805 5.68219 4.64948 5.50973 4.77663 5.38258C4.90378 5.25543 5.07623 5.184 5.25605 5.184H16.783C16.9629 5.184 17.1353 5.11257 17.2625 4.98542C17.3896 4.85827 17.461 4.68582 17.461 4.506C17.461 4.32619 17.3896 4.15373 17.2625 4.02658C17.1353 3.89943 16.9629 3.828 16.783 3.828H5.25605C4.71676 3.82853 4.19971 4.043 3.81838 4.42433C3.43704 4.80567 3.22258 5.32271 3.22205 5.862V16.712C3.22284 17.2512 3.43739 17.7681 3.81867 18.1494C4.19994 18.5307 4.71684 18.7452 5.25605 18.746H18.817C19.1765 18.7455 19.5211 18.6024 19.7753 18.3483C20.0295 18.0941 20.1725 17.7495 20.173 17.39V7.897C20.1728 7.53736 20.0299 7.1925 19.7757 6.9381C19.5214 6.6837 19.1767 6.54053 18.817 6.54ZM18.817 17.39H5.25605C5.07631 17.3897 4.90401 17.3182 4.77692 17.1911C4.64983 17.064 4.57831 16.8917 4.57805 16.712V7.78C4.79605 7.857 5.02505 7.897 5.25605 7.897H18.817V17.39ZM14.749 12.643C14.7448 12.5068 14.7679 12.3712 14.8171 12.2441C14.8662 12.1171 14.9404 12.0012 15.0352 11.9034C15.13 11.8055 15.2435 11.7277 15.369 11.6746C15.4945 11.6215 15.6293 11.5941 15.7655 11.5941C15.9018 11.5941 16.0366 11.6215 16.1621 11.6746C16.2875 11.7277 16.401 11.8055 16.4959 11.9034C16.5907 12.0012 16.6649 12.1171 16.714 12.2441C16.7632 12.3712 16.7863 12.5068 16.782 12.643C16.7738 12.9071 16.663 13.1576 16.4733 13.3414C16.2836 13.5253 16.0297 13.6281 15.7655 13.6281C15.5013 13.6281 15.2475 13.5253 15.0578 13.3414C14.8681 13.1576 14.7573 12.9071 14.749 12.643Z" fill="white"/>
</svg>
